<?xml version="1.0" encoding="UTF-8"?>
<svg width="400" height="500" viewBox="0 0 400 500" version="1.1" xmlns="http://www.w3.org/2000/svg">
  <g fill="#000000">
    <!-- Monkey Body -->
    <path d="M200 100 C 120 100, 80 160, 80 220 C 80 280, 120 340, 200 340 C 280 340, 320 280, 320 220 C 320 160, 280 100, 200 100 Z"/>
    <!-- Ears -->
    <circle cx="100" cy="180" r="30"/>
    <circle cx="300" cy="180" r="30"/>
    <!-- Glasses -->
    <rect x="140" y="160" width="50" height="40" rx="10"/>
    <rect x="210" y="160" width="50" height="40" rx="10"/>
    <path d="M190 180 L 210 180" stroke="#000000" stroke-width="4"/>
    <!-- Laptop Base -->
    <path d="M150 240 L 250 240 L 270 280 L 130 280 Z"/>
    <!-- Laptop Screen -->
    <path d="M160 200 L 240 200 L 250 240 L 150 240 Z"/>
    <!-- Text -->
    <text x="200" y="400" text-anchor="middle" font-family="Arial, sans-serif" font-size="24" font-weight="bold">Explore. Evolve. Engineer.</text>
  </g>
</svg>